<svg width="60" height="60" viewBox="0 0 60 60" fill="none" xmlns="http://www.w3.org/2000/svg">
<path d="M0 60L-2.18557e-06 10C-2.42698e-06 4.47715 4.47715 -1.95703e-07 10 -4.37114e-07L50 -2.18557e-06C55.5228 -2.42698e-06 60 4.47715 60 10L60 60L0 60Z" fill="#418765" fill-opacity="0.75"/>
<path d="M14.0526 39.392V37.3636H23.6094V39.392H20.0469V49H17.6151V39.392H14.0526ZM35.3452 43.1818C35.3452 44.4508 35.1046 45.5303 34.6236 46.4205C34.1463 47.3106 33.4948 47.9905 32.669 48.4602C31.8471 48.9261 30.9228 49.1591 29.8963 49.1591C28.8622 49.1591 27.9342 48.9242 27.1122 48.4545C26.2902 47.9848 25.6406 47.3049 25.1634 46.4148C24.6861 45.5246 24.4474 44.447 24.4474 43.1818C24.4474 41.9129 24.6861 40.8333 25.1634 39.9432C25.6406 39.053 26.2902 38.375 27.1122 37.9091C27.9342 37.4394 28.8622 37.2045 29.8963 37.2045C30.9228 37.2045 31.8471 37.4394 32.669 37.9091C33.4948 38.375 34.1463 39.053 34.6236 39.9432C35.1046 40.8333 35.3452 41.9129 35.3452 43.1818ZM32.8509 43.1818C32.8509 42.3598 32.7277 41.6667 32.4815 41.1023C32.2391 40.5379 31.8963 40.1098 31.4531 39.8182C31.0099 39.5265 30.491 39.3807 29.8963 39.3807C29.3016 39.3807 28.7827 39.5265 28.3395 39.8182C27.8963 40.1098 27.5516 40.5379 27.3054 41.1023C27.063 41.6667 26.9418 42.3598 26.9418 43.1818C26.9418 44.0038 27.063 44.697 27.3054 45.2614C27.5516 45.8258 27.8963 46.2538 28.3395 46.5455C28.7827 46.8371 29.3016 46.983 29.8963 46.983C30.491 46.983 31.0099 46.8371 31.4531 46.5455C31.8963 46.2538 32.2391 45.8258 32.4815 45.2614C32.7277 44.697 32.8509 44.0038 32.8509 43.1818ZM37.1676 49V37.3636H41.7585C42.6411 37.3636 43.393 37.5322 44.0142 37.8693C44.6354 38.2027 45.1089 38.6667 45.4347 39.2614C45.7642 39.8523 45.929 40.5341 45.929 41.3068C45.929 42.0795 45.7623 42.7614 45.429 43.3523C45.0956 43.9432 44.6127 44.4034 43.9801 44.733C43.3513 45.0625 42.59 45.2273 41.696 45.2273H38.7699V43.2557H41.2983C41.7718 43.2557 42.1619 43.1742 42.4688 43.0114C42.7794 42.8447 43.0104 42.6155 43.1619 42.3239C43.3172 42.0284 43.3949 41.6894 43.3949 41.3068C43.3949 40.9205 43.3172 40.5833 43.1619 40.2955C43.0104 40.0038 42.7794 39.7784 42.4688 39.6193C42.1581 39.4564 41.7642 39.375 41.2869 39.375H39.6278V49H37.1676Z" fill="white"/>
<path d="M11.25 27L30.0032 12L48.75 27" stroke="white" stroke-opacity="0.9" stroke-width="2" stroke-miterlimit="10"/>
</svg>
